# xmcd
# 
# Track frame offsets:
#     150
#     20348
#     36218
#     49894
#     65675
#     81761
#     104063
#     119428
#     133404
#     150404
#     164325
# 
# Disc length: 2351
# 
# Revision: 1
# Processed by: cddbd v1.5.2PL0 Copyright (c) Steve Scherf et al.
# Submitted via: fre:ac v1.0.31
# 
DISCID=98092d0b
DTITLE=Larry Carlton - Larry Carlton Plays The Sound Of Philadelphia
DYEAR=2010
DGENRE=Jazz
TTITLE0=Could it be I´m falling in love
TTITLE1=Back stabbers
TTITLE2=If you don´t know me by now
TTITLE3=Drownin´in the sea of love
TTITLE4=I´ll be around
TTITLE5=You make me feel brand new
TTITLE6=Bad luck
TTITLE7=Never give you up
TTITLE8=Mama can´t buy you love
TTITLE9=Only the strong survive
TTITLE10=Mighty love
EXTD=YEAR: 2010
EXTT0=
EXTT1=
EXTT2=
EXTT3=
EXTT4=
EXTT5=
EXTT6=
EXTT7=
EXTT8=
EXTT9=
EXTT10=
PLAYORDER=
